PathFileType	4	(X/Y/Z)	C:\Users\italobelli\Desktop\GitHub\PTbot_officialCBL\Personal_Results\FLX22_noisy2.trc
DataRate	CameraRate	NumFrames	NumMarkers	Units	OrigDataRate	OrigDataStartFrame	OrigNumFrames
106.125000	106.125000	51	9	m	106.125000	213	850
Frame#	Time		gu		centelbow		EpL		centpxt8		centijc7		ij		ts		aa		ai
			X1	Y1	Z1	X2	Y2	Z2	X3	Y3	Z3	X4	Y4	Z4	X5	Y5	Z5	X6	Y6	Z6	X7	Y7	Z7	X8	Y8	Z8	X9	Y9	Z9

213	1.9976	-0.061453	0.012851	0.15303	0.12481	-0.11647	0.24412	0.12665	-0.091991	0.26503	-0.046816	-0.15316	-0.008669	-0.046816	0.031938	-0.008669	0	0	0	-0.14752	0.011076	0.057837	-0.095828	0.036855	0.16216	-0.14804	-0.097519	0.090872
214	2.0071	-0.061458	0.013452	0.15278	0.12617	-0.11363	0.24435	0.12788	-0.089025	0.26512	-0.046816	-0.15316	-0.008669	-0.046816	0.031938	-0.008669	0	0	0	-0.14767	0.010884	0.057839	-0.095743	0.037249	0.162	-0.14787	-0.097564	0.09141
215	2.0165	-0.061482	0.014063	0.15253	0.1275	-0.11075	0.24459	0.12908	-0.086016	0.2652	-0.046816	-0.15316	-0.008669	-0.046816	0.031938	-0.008669	0	0	0	-0.14782	0.010695	0.057838	-0.095663	0.037651	0.16184	-0.14769	-0.0976	0.091947
216	2.0259	-0.061524	0.014685	0.15227	0.12881	-0.10783	0.24482	0.13023	-0.082965	0.26528	-0.046816	-0.15316	-0.008669	-0.046816	0.031938	-0.008669	0	0	0	-0.14796	0.010509	0.057836	-0.09559	0.038063	0.16166	-0.14752	-0.097627	0.092484
217	2.0353	-0.061584	0.015316	0.15199	0.13009	-0.10487	0.24505	0.13134	-0.079873	0.26535	-0.046816	-0.15316	-0.008669	-0.046816	0.031938	-0.008669	0	0	0	-0.14812	0.010325	0.057832	-0.095522	0.038484	0.16146	-0.14734	-0.097644	0.093021
218	2.0448	-0.061661	0.015957	0.15171	0.13134	-0.10187	0.24529	0.13242	-0.076741	0.26542	-0.046816	-0.15316	-0.008669	-0.046816	0.031938	-0.008669	0	0	0	-0.14827	0.010144	0.057828	-0.09546	0.038913	0.16125	-0.14717	-0.097653	0.093557
219	2.0542	-0.061755	0.016606	0.15143	0.13256	-0.098831	0.24553	0.13345	-0.073572	0.26547	-0.046816	-0.15316	-0.008669	-0.046816	0.031938	-0.008669	0	0	0	-0.14842	0.0099654	0.057822	-0.095404	0.039351	0.16103	-0.14699	-0.097654	0.094093
220	2.0636	-0.061865	0.017264	0.15113	0.13375	-0.095758	0.24577	0.13444	-0.070368	0.26552	-0.046816	-0.15316	-0.008669	-0.046816	0.031938	-0.008669	0	0	0	-0.14858	0.0097891	0.057815	-0.095353	0.039796	0.1608	-0.14681	-0.097646	0.094629
221	2.073	-0.06199	0.017929	0.15083	0.1349	-0.092651	0.246	0.13538	-0.067128	0.26557	-0.046816	-0.15316	-0.008669	-0.046816	0.031938	-0.008669	0	0	0	-0.14873	0.0096149	0.057806	-0.095308	0.040249	0.16055	-0.14663	-0.09763	0.095164
222	2.0824	-0.062131	0.0186	0.15052	0.13603	-0.089511	0.24624	0.13629	-0.063856	0.2656	-0.046816	-0.15316	-0.008669	-0.046816	0.031938	-0.008669	0	0	0	-0.14889	0.0094428	0.057797	-0.095268	0.040709	0.16029	-0.14645	-0.097606	0.095699
223	2.0919	-0.062286	0.019278	0.1502	0.13713	-0.08634	0.24648	0.13715	-0.060553	0.26563	-0.046816	-0.15316	-0.008669	-0.046816	0.031938	-0.008669	0	0	0	-0.14905	0.0092725	0.057787	-0.095234	0.041175	0.16002	-0.14627	-0.097574	0.096234
224	2.1013	-0.062456	0.019961	0.14988	0.13819	-0.083138	0.24671	0.13798	-0.057221	0.26565	-0.046816	-0.15316	-0.008669	-0.046816	0.031938	-0.008669	0	0	0	-0.14921	0.009104	0.057775	-0.095206	0.041647	0.15974	-0.14609	-0.097535	0.096768
225	2.1107	-0.062639	0.020649	0.14955	0.13922	-0.079909	0.24695	0.13876	-0.053861	0.26566	-0.046816	-0.15316	-0.008669	-0.046816	0.031938	-0.008669	0	0	0	-0.14937	0.008937	0.057763	-0.095183	0.042126	0.15945	-0.14591	-0.097489	0.097302
226	2.1201	-0.062835	0.021341	0.14921	0.14021	-0.076653	0.24718	0.1395	-0.050475	0.26567	-0.046816	-0.15316	-0.008669	-0.046816	0.031938	-0.008669	0	0	0	-0.14953	0.0087715	0.05775	-0.095165	0.04261	0.15915	-0.14573	-0.097435	0.097836
227	2.1296	-0.063043	0.022037	0.14887	0.14117	-0.073371	0.24741	0.1402	-0.047065	0.26567	-0.046816	-0.15316	-0.008669	-0.046816	0.031938	-0.008669	0	0	0	-0.14969	0.0086073	0.057736	-0.095152	0.043099	0.15884	-0.14555	-0.097375	0.09837
228	2.139	-0.063264	0.022736	0.14852	0.1421	-0.070066	0.24764	0.14086	-0.043632	0.26566	-0.046816	-0.15316	-0.008669	-0.046816	0.031938	-0.008669	0	0	0	-0.14985	0.0084443	0.057721	-0.095145	0.043592	0.15851	-0.14536	-0.097308	0.098903
229	2.1484	-0.063495	0.023438	0.14817	0.14299	-0.066738	0.24786	0.14147	-0.040177	0.26564	-0.046816	-0.15316	-0.008669	-0.046816	0.031938	-0.008669	0	0	0	-0.15	0.0082824	0.057705	-0.095143	0.04409	0.15819	-0.14518	-0.097235	0.099436
230	2.1578	-0.063738	0.024141	0.14781	0.14384	-0.063389	0.24808	0.14204	-0.036704	0.26562	-0.046816	-0.15316	-0.008669	-0.046816	0.031938	-0.008669	0	0	0	-0.15016	0.0081213	0.057689	-0.095146	0.044592	0.15785	-0.14499	-0.097156	0.099968
231	2.1673	-0.063991	0.024845	0.14744	0.14466	-0.060021	0.2483	0.14257	-0.033212	0.26559	-0.046816	-0.15316	-0.008669	-0.046816	0.031938	-0.008669	0	0	0	-0.15032	0.007961	0.057672	-0.095154	0.045097	0.1575	-0.14481	-0.097071	0.1005
232	2.1767	-0.064253	0.02555	0.14708	0.14544	-0.056635	0.24851	0.14306	-0.029705	0.26555	-0.046816	-0.15316	-0.008669	-0.046816	0.031938	-0.008669	0	0	0	-0.15048	0.0078013	0.057655	-0.095168	0.045606	0.15715	-0.14462	-0.09698	0.10103
233	2.1861	-0.064525	0.026255	0.1467	0.14619	-0.053233	0.24873	0.14351	-0.026183	0.2655	-0.046816	-0.15316	-0.008669	-0.046816	0.031938	-0.008669	0	0	0	-0.15064	0.0076421	0.057637	-0.095186	0.046117	0.15679	-0.14443	-0.096883	0.10156
234	2.1955	-0.064806	0.02696	0.14632	0.14689	-0.049816	0.24893	0.14392	-0.022648	0.26545	-0.046816	-0.15316	-0.008669	-0.046816	0.031938	-0.008669	0	0	0	-0.15079	0.0074832	0.057619	-0.095209	0.04663	0.15642	-0.14424	-0.096781	0.10209
235	2.2049	-0.065095	0.027663	0.14594	0.14756	-0.046386	0.24913	0.14428	-0.019102	0.26539	-0.046816	-0.15316	-0.008669	-0.046816	0.031938	-0.008669	0	0	0	-0.15095	0.0073245	0.057601	-0.095237	0.047146	0.15604	-0.14405	-0.096675	0.10262
236	2.2144	-0.065391	0.028364	0.14556	0.14818	-0.042943	0.24933	0.1446	-0.015547	0.26532	-0.046816	-0.15316	-0.008669	-0.046816	0.031938	-0.008669	0	0	0	-0.1511	0.0071659	0.057582	-0.09527	0.047663	0.15566	-0.14386	-0.096563	0.10316
237	2.2238	-0.065695	0.029062	0.14517	0.14877	-0.03949	0.24952	0.14488	-0.011983	0.26525	-0.046816	-0.15316	-0.008669	-0.046816	0.031938	-0.008669	0	0	0	-0.15126	0.0070072	0.057563	-0.095308	0.048181	0.15528	-0.14367	-0.096446	0.10368
238	2.2332	-0.066005	0.029757	0.14477	0.14932	-0.036029	0.2497	0.14511	-0.0084141	0.26516	-0.046816	-0.15316	-0.008669	-0.046816	0.031938	-0.008669	0	0	0	-0.15141	0.0068483	0.057543	-0.095351	0.0487	0.15489	-0.14348	-0.096326	0.10421
239	2.2426	-0.066321	0.030449	0.14438	0.14982	-0.03256	0.24988	0.14531	-0.0048402	0.26507	-0.046816	-0.15316	-0.008669	-0.046816	0.031938	-0.008669	0	0	0	-0.15156	0.006689	0.057524	-0.095398	0.04922	0.15449	-0.14328	-0.096201	0.10474
240	2.2521	-0.066642	0.031136	0.14398	0.15028	-0.029085	0.25005	0.14546	-0.0012634	0.26497	-0.046816	-0.15316	-0.008669	-0.046816	0.031938	-0.008669	0	0	0	-0.1517	0.0065292	0.057504	-0.09545	0.049739	0.15409	-0.14309	-0.096072	0.10527
241	2.2615	-0.066969	0.031819	0.14358	0.1507	-0.025605	0.25022	0.14557	0.0023146	0.26487	-0.046816	-0.15316	-0.008669	-0.046816	0.031938	-0.008669	0	0	0	-0.15185	0.0063688	0.057485	-0.095507	0.050258	0.15368	-0.14289	-0.095939	0.1058
242	2.2709	-0.0673	0.032495	0.14317	0.15108	-0.022123	0.25037	0.14563	0.0058922	0.26475	-0.046816	-0.15316	-0.008669	-0.046816	0.031938	-0.008669	0	0	0	-0.15199	0.0062076	0.057465	-0.095568	0.050777	0.15328	-0.14269	-0.095803	0.10633
243	2.2803	-0.067635	0.033165	0.14276	0.15142	-0.018639	0.25052	0.14566	0.0094676	0.26463	-0.046816	-0.15316	-0.008669	-0.046816	0.031938	-0.008669	0	0	0	-0.15213	0.0060454	0.057445	-0.095634	0.051294	0.15287	-0.14249	-0.095663	0.10686
244	2.2898	-0.067973	0.033829	0.14235	0.15171	-0.015155	0.25066	0.14564	0.013039	0.2645	-0.046816	-0.15316	-0.008669	-0.046816	0.031938	-0.008669	0	0	0	-0.15227	0.0058822	0.057426	-0.095704	0.05181	0.15245	-0.14229	-0.09552	0.10738
245	2.2992	-0.068314	0.034485	0.14194	0.15195	-0.011673	0.2508	0.14558	0.016606	0.26437	-0.046816	-0.15316	-0.008669	-0.046816	0.031938	-0.008669	0	0	0	-0.1524	0.0057178	0.057406	-0.095779	0.052324	0.15203	-0.14209	-0.095375	0.10791
246	2.3086	-0.068657	0.035133	0.14153	0.15216	-0.0081939	0.25092	0.14547	0.020165	0.26422	-0.046816	-0.15316	-0.008669	-0.046816	0.031938	-0.008669	0	0	0	-0.15254	0.0055521	0.057387	-0.095858	0.052835	0.15162	-0.14189	-0.095226	0.10844
247	2.318	-0.069002	0.035772	0.14111	0.15231	-0.0047193	0.25104	0.14532	0.023715	0.26407	-0.046816	-0.15316	-0.008669	-0.046816	0.031938	-0.008669	0	0	0	-0.15266	0.0053849	0.057369	-0.095941	0.053344	0.1512	-0.14169	-0.095076	0.10896
248	2.3274	-0.069348	0.036402	0.1407	0.15242	-0.0012508	0.25114	0.14513	0.027255	0.26391	-0.046816	-0.15316	-0.008669	-0.046816	0.031938	-0.008669	0	0	0	-0.15279	0.0052161	0.05735	-0.096029	0.05385	0.15078	-0.14148	-0.094923	0.10949
249	2.3369	-0.069695	0.037022	0.14028	0.15248	0.0022103	0.25124	0.1449	0.030784	0.26374	-0.046816	-0.15316	-0.008669	-0.046816	0.031938	-0.008669	0	0	0	-0.15291	0.0050455	0.057332	-0.096121	0.054352	0.15035	-0.14127	-0.094768	0.11001
250	2.3463	-0.070042	0.037631	0.13986	0.1525	0.0056623	0.25133	0.14462	0.034298	0.26356	-0.046816	-0.15316	-0.008669	-0.046816	0.031938	-0.008669	0	0	0	-0.15303	0.004873	0.057314	-0.096217	0.054851	0.14993	-0.14107	-0.094611	0.11054
251	2.3557	-0.070389	0.038229	0.13945	0.15246	0.0091039	0.2514	0.1443	0.037797	0.26338	-0.046816	-0.15316	-0.008669	-0.046816	0.031938	-0.008669	0	0	0	-0.15315	0.0046985	0.057297	-0.096317	0.055345	0.14951	-0.14086	-0.094452	0.11106
252	2.3651	-0.070734	0.038815	0.13903	0.15238	0.012533	0.25147	0.14394	0.041279	0.26319	-0.046816	-0.15316	-0.008669	-0.046816	0.031938	-0.008669	0	0	0	-0.15326	0.0045218	0.057281	-0.096421	0.055835	0.14909	-0.14065	-0.094292	0.11158
253	2.3746	-0.071078	0.039389	0.13861	0.15225	0.015949	0.25152	0.14354	0.044742	0.26299	-0.046816	-0.15316	-0.008669	-0.046816	0.031938	-0.008669	0	0	0	-0.15336	0.0043428	0.057265	-0.09653	0.05632	0.14867	-0.14043	-0.094131	0.11211
254	2.384	-0.071421	0.03995	0.13819	0.15207	0.01935	0.25157	0.14309	0.048186	0.26278	-0.046816	-0.15316	-0.008669	-0.046816	0.031938	-0.008669	0	0	0	-0.15347	0.0041613	0.057249	-0.096642	0.056799	0.14825	-0.14022	-0.093969	0.11263
255	2.3934	-0.07176	0.040497	0.13777	0.15184	0.022735	0.2516	0.14259	0.051607	0.26257	-0.046816	-0.15316	-0.008669	-0.046816	0.031938	-0.008669	0	0	0	-0.15357	0.0039773	0.057235	-0.096758	0.057273	0.14783	-0.14	-0.093807	0.11315
256	2.4028	-0.072097	0.041029	0.13736	0.15156	0.026102	0.25162	0.14206	0.055004	0.26234	-0.046816	-0.15316	-0.008669	-0.046816	0.031938	-0.008669	0	0	0	-0.15366	0.0037904	0.057221	-0.096878	0.05774	0.14742	-0.13979	-0.093644	0.11367
257	2.4122	-0.07243	0.041547	0.13694	0.15123	0.029449	0.25162	0.14148	0.058376	0.26211	-0.046816	-0.15316	-0.008669	-0.046816	0.031938	-0.008669	0	0	0	-0.15375	0.0036008	0.057208	-0.097002	0.058201	0.14701	-0.13957	-0.09348	0.11419
258	2.4217	-0.072758	0.04205	0.13652	0.15084	0.032775	0.25162	0.14086	0.061722	0.26187	-0.046816	-0.15316	-0.008669	-0.046816	0.031938	-0.008669	0	0	0	-0.15383	0.0034081	0.057196	-0.09713	0.058655	0.1466	-0.13935	-0.093316	0.11471
259	2.4311	-0.073082	0.042536	0.13611	0.15041	0.036078	0.2516	0.14019	0.065038	0.26163	-0.046816	-0.15316	-0.008669	-0.046816	0.031938	-0.008669	0	0	0	-0.15391	0.0032122	0.057185	-0.097261	0.059101	0.14619	-0.13913	-0.093153	0.11523
260	2.4405	-0.073401	0.043005	0.1357	0.14992	0.039358	0.25156	0.13948	0.068325	0.26137	-0.046816	-0.15316	-0.008669	-0.046816	0.031938	-0.008669	0	0	0	-0.15399	0.0030131	0.057175	-0.097397	0.05954	0.14579	-0.1389	-0.09299	0.11575
261	2.4499	-0.073714	0.043457	0.13529	0.14937	0.042612	0.25152	0.13873	0.07158	0.26111	-0.046816	-0.15316	-0.008669	-0.046816	0.031938	-0.008669	0	0	0	-0.15406	0.0028105	0.057166	-0.097535	0.059971	0.14539	-0.13868	-0.092828	0.11627
262	2.4594	-0.074021	0.043891	0.13488	0.14877	0.04584	0.25146	0.13793	0.074801	0.26083	-0.046816	-0.15316	-0.008669	-0.046816	0.031938	-0.008669	0	0	0	-0.15412	0.0026043	0.057158	-0.097678	0.060393	0.145	-0.13845	-0.092666	0.11679
263	2.4688	-0.074321	0.044306	0.13447	0.14812	0.049039	0.25138	0.13709	0.077986	0.26055	-0.046816	-0.15316	-0.008669	-0.046816	0.031938	-0.008669	0	0	0	-0.15418	0.0023945	0.057151	-0.097824	0.060807	0.14461	-0.13822	-0.092505	0.11731
